<?xml version="1.0" encoding="UTF-8" standalone="no" ?>
<!DOCTYPE svg PUBLIC "-//W3C//DTD SVG 1.1//EN" "http://www.w3.org/Graphics/SVG/1.1/DTD/svg11.dtd">
<svg xmlns="http://www.w3.org/2000/svg" xmlns:xlink="http://www.w3.org/1999/xlink" version="1.1" width="1080" height="1080" viewBox="0 0 1080 1080" xml:space="preserve">
<desc>Created with Fabric.js 5.2.4</desc>
<defs>
</defs>
<g transform="matrix(1 0 0 1 540 540)" id="ef925d3d-9c20-424a-a896-31404844f8ae"  >
</g>
<g transform="matrix(1 0 0 1 540 540)" id="2c26c9b2-2078-4a1c-8852-42ad26179bf5"  >
<rect style="stroke: none; stroke-width: 1; stroke-dasharray: none; stroke-linecap: butt; stroke-dashoffset: 0; stroke-linejoin: miter; stroke-miterlimit: 4; fill: rgb(255,255,255); fill-rule: nonzero; opacity: 1; visibility: hidden;" vector-effect="non-scaling-stroke"  x="-540" y="-540" rx="0" ry="0" width="1080" height="1080" />
</g>
<g transform="matrix(6.75 0 0 6.75 540 540)"  >
<g style=""   >
		<g transform="matrix(1 0 0 1 0 0)"  >
<rect style="stroke: none; stroke-width: 1; stroke-dasharray: none; stroke-linecap: butt; stroke-dashoffset: 0; stroke-linejoin: miter; stroke-miterlimit: 4; fill: none; fill-rule: nonzero; opacity: 1;" vector-effect="non-scaling-stroke"  x="-80" y="-80" rx="0" ry="0" width="160" height="160" />
</g>
		<g transform="matrix(1 0 0 1 0 0)"  >
<path style="stroke: none; stroke-width: 1; stroke-dasharray: none; stroke-linecap: butt; stroke-dashoffset: 0; stroke-linejoin: miter; stroke-miterlimit: 4; fill: rgb(255,255,255); fill-rule: nonzero; opacity: 1;" vector-effect="non-scaling-stroke"  transform=" translate(-80, -80)" d="M 20 20 L 140 20 Q 145 20 145 25 L 145 40 Q 145 45 140 45 L 95 45 L 95 135 Q 95 140 90 140 L 70 140 Q 65 140 65 135 L 65 45 L 20 45 Q 15 45 15 40 L 15 25 Q 15 20 20 20 Z" stroke-linecap="round" />
</g>
		<g transform="matrix(1 0 0 1 37.5 -20.5)"  >
<path style="stroke: none; stroke-width: 1; stroke-dasharray: none; stroke-linecap: butt; stroke-dashoffset: 0; stroke-linejoin: miter; stroke-miterlimit: 4; fill: rgb(255,255,255); fill-rule: nonzero; opacity: 1;" vector-effect="non-scaling-stroke"  transform=" translate(-117.5, -59.5)" d="M 100 55 L 135 55 Q 137 55 137 57 L 137 62 Q 137 64 135 64 L 100 64 Q 98 64 98 62 L 98 57 Q 98 55 100 55 Z" stroke-linecap="round" />
</g>
		<g transform="matrix(1 0 0 1 37.5 -5.5)"  >
<path style="stroke: none; stroke-width: 1; stroke-dasharray: none; stroke-linecap: butt; stroke-dashoffset: 0; stroke-linejoin: miter; stroke-miterlimit: 4; fill: rgb(255,255,255); fill-rule: nonzero; opacity: 1;" vector-effect="non-scaling-stroke"  transform=" translate(-117.5, -74.5)" d="M 100 70 L 135 70 Q 137 70 137 72 L 137 77 Q 137 79 135 79 L 100 79 Q 98 79 98 77 L 98 72 Q 98 70 100 70 Z" stroke-linecap="round" />
</g>
		<g transform="matrix(1 0 0 1 37.5 9.5)"  >
<path style="stroke: none; stroke-width: 1; stroke-dasharray: none; stroke-linecap: butt; stroke-dashoffset: 0; stroke-linejoin: miter; stroke-miterlimit: 4; fill: rgb(255,255,255); fill-rule: nonzero; opacity: 1;" vector-effect="non-scaling-stroke"  transform=" translate(-117.5, -89.5)" d="M 100 85 L 135 85 Q 137 85 137 87 L 137 92 Q 137 94 135 94 L 100 94 Q 98 94 98 92 L 98 87 Q 98 85 100 85 Z" stroke-linecap="round" />
</g>
</g>
</g>
</svg>