<?xml version="1.0" encoding="UTF-8"?>
<!DOCTYPE svg PUBLIC "-//W3C//DTD SVG 1.1//EN" "http://www.w3.org/Graphics/SVG/1.1/DTD/svg11.dtd">
<!-- Creator: CorelDRAW 2019 (64-Bit) -->
<svg xmlns="http://www.w3.org/2000/svg" xml:space="preserve" width="187.883mm" height="130.364mm" version="1.1" style="shape-rendering:geometricPrecision; text-rendering:geometricPrecision; image-rendering:optimizeQuality; fill-rule:evenodd; clip-rule:evenodd"
viewBox="0 0 188.141 130.5437"
 xmlns:xlink="http://www.w3.org/1999/xlink"
 xmlns:xodm="http://www.corel.com/coreldraw/odm/2003">
 <defs>
  <style type="text/css">
   <![CDATA[
    .fil0 {fill:black}
    .fil1 {fill:white}
   ]]>
  </style>
 </defs>
 <g id="Layer_x0020_1">
  <metadata id="CorelCorpID_0Corel-Layer"/>
  <g id="_729856512">
   <path class="fil0" d="M66.5608 81.8715c-0.0008,-0.0008 -0.0016,-0.0033 -0.002,-0.0035 -0.0043,-0.0014 -0.0024,0.0002 0.002,0.0035z"/>
   <path class="fil0" d="M187.4513 91.8839c-0.3596,-0.2398 -2.3797,-2.2086 -3.0818,-2.9448 -0.702,-0.7361 -0.8902,-1.1813 -1.6778,-1.9518 -0.7878,-0.7705 -3.2874,-3.0647 -4.1606,-3.6812 -0.8731,-0.6163 -2.9446,-2.3284 -3.3728,-2.859 -0.4282,-0.5307 -0.6848,-0.3253 -0.8732,-0.1541 -0.1884,0.1711 -0.7362,0.8389 -1.1814,1.4552 -0.4452,0.6163 -0.9929,0.9932 -2.3455,1.267 -1.3524,0.2739 -1.6436,0.1711 -1.7122,0.1711 -0.0686,0 0,-1.8662 -0.017,-2.8078 -0.017,-0.9416 0.0856,-2.9621 0.0856,-4.2634 0,-1.3014 -0.0856,-5.376 -0.12,-6.4718 -0.0343,-1.0959 -0.2396,-4.9652 -0.3082,-6.4374 -0.0686,-1.4723 -0.2569,-4.6741 -0.2738,-5.8041 -0.0171,-1.1301 -0.3767,-3.3214 -0.4281,-4.7769 -0.0514,-1.4554 -0.274,-2.8934 -0.2911,-3.8523 -0.0171,-0.9588 -0.1369,-3.2872 -0.1369,-3.2872 0,0 0.9416,-0.4794 1.4211,-0.8045 0.4793,-0.3254 0.8732,-0.7022 1.5068,-1.3185 0.6336,-0.6163 2.0887,-2.842 2.7906,-4.3489 0.7021,-1.5068 1.558,-4.7595 1.9349,-6.489 0.3767,-1.7292 0.6847,-4.1088 0.6504,-4.7937 -0.0343,-0.685 -0.428,-1.7977 -0.6676,-2.5511 -0.2398,-0.7534 -0.6335,-1.7463 -0.7706,-2.0375 -0.137,-0.2911 -0.5137,-1.6777 -0.7705,-2.6366 -0.2568,-0.9588 -1.0786,-1.1984 -1.4382,-1.4212 -0.3596,-0.2227 -0.565,-1.0272 -0.8732,-1.3011 -0.3082,-0.2739 -0.3082,-0.548 -0.4622,-0.8732 -0.154,-0.3252 -2.1573,-1.6265 -3.0475,-2.3798 -0.8902,-0.7534 -2.3458,-2.1573 -3.3386,-3.1504 -0.9931,-0.9932 -2.1916,-2.1573 -3.1502,-2.9619 -0.9586,-0.8047 -2.6711,-2.4827 -3.9381,-3.3559 -1.2669,-0.8732 -2.26,-1.9518 -3.3042,-2.4482 -1.0444,-0.4966 -1.5752,-0.5309 -2.7396,-0.6849 -1.1642,-0.1541 -0.5651,0.5308 -0.1883,0.9759 0.3769,0.4449 0.428,0.8217 0.6848,1.3013 0.2568,0.4794 1.0444,1.9004 1.4726,2.9959 0.4281,1.0959 1.1812,3.6128 1.284,4.5546 0.1027,0.9416 -0.0514,2.6878 -0.12,3.3554 -0.0686,0.6677 -0.3596,1.2159 -0.582,1.8664 -0.2226,0.6505 -0.7534,2.4141 -1.6096,3.938 -0.8562,1.5238 -2.3626,2.7906 -2.8763,3.1502 -0.5137,0.3595 -1.6607,0.7705 -2.2941,1.0445 -0.6334,0.2738 -2.7052,1.13 -3.9722,1.3695 -1.267,0.2396 -3.7322,-0.0172 -5.1535,-0.3595 -1.4211,-0.3423 -2.8077,-1.2668 -4.0577,-1.8832 -1.25,-0.6164 -2.6536,-1.695 -3.2531,-2.1745 -0.5991,-0.4796 -0.736,-0.2055 -1.0786,-0.0173 -0.3424,0.1884 -1.284,0.9932 -2.0032,1.5068 -0.719,0.5137 -1.9518,1.3014 -2.9275,2.0546 -0.976,0.7531 -3.1503,2.1059 -4.1776,2.7908 -1.0273,0.6847 -4.2805,2.8078 -5.5302,3.5612 -1.2498,0.7534 -3.1501,2.0375 -4.0748,2.5851 -0.9245,0.5478 -2.7222,1.6438 -3.3387,2.0374 -0.6163,0.3938 -0.8218,0.1886 -0.9758,0.1372 -0.1541,-0.0514 -0.6163,-0.2913 -1.0616,-0.565 -0.4452,-0.2741 -2.0376,-1.0105 -2.9621,-1.3869 -0.9245,-0.3767 -1.9175,-0.9074 -3.0132,-1.4381 -1.0956,-0.5309 -1.1814,-0.9075 -2.1916,-1.4725 -1.0101,-0.565 -1.7976,-0.9759 -2.9106,-1.3698 -1.1128,-0.3938 -2.8933,-1.849 -4.0574,-2.4827 -1.1644,-0.6334 -3.7496,-2.3282 -4.2978,-2.5849 -0.5477,-0.2569 -1.3868,-0.6678 -2.0712,-1.0273 -0.685,-0.3596 -1.7637,-0.9591 -2.6882,-1.4555 -0.9247,-0.4964 -0.6338,0.4964 -0.4624,1.3354 0.0109,0.0531 0.2912,2.1914 0.3596,2.8763 0.0684,0.685 0.1713,1.4383 0.1028,1.5582 -0.0688,0.1198 -0.7192,0.4622 -1.0444,0.6333 -0.3252,0.1713 -1.2327,0.839 -1.6092,1.0617 -0.3768,0.2226 -0.4966,-0.3253 -0.6508,-0.4622 -0.154,-0.137 -0.9758,-0.4454 -1.267,-0.6163 -0.2911,-0.1713 -0.9072,-0.6849 -1.3354,-0.959 -0.4281,-0.2739 -1.1128,-0.9415 -1.4722,-1.1814 -0.3597,-0.2395 -0.3082,-0.5478 -0.2912,-0.8559 0.017,-0.3082 0.7533,-1.6778 1.1471,-2.277 0.3936,-0.5994 0.2396,-0.8732 0.0687,-0.9931 -0.1713,-0.12 -0.9077,-0.4966 -1.5583,-0.8561 -0.6504,-0.3596 -0.6676,-0.7361 -1.0098,-1.0273 -0.3427,-0.2911 -1.9351,-1.4212 -2.9279,-2.0889 -0.9931,-0.6676 -3.5612,-2.6195 -4.3658,-3.1672 -0.8048,-0.548 -0.7364,-0.6336 -1.1644,-1.13 -0.4279,-0.4967 -1.267,-1.1473 -2.0714,-1.832 -0.8048,-0.6848 -2.4998,-1.6608 -3.4414,-2.3457 -0.9418,-0.6849 -3.63,-2.9619 -4.9309,-3.9721 -1.3014,-1.0102 -4.7085,-3.2016 -5.8899,-4.0406 -1.1813,-0.8392 -2.9446,-1.9519 -3.7666,-2.4311 -0.8218,-0.4794 -0.9245,0.1884 -0.9589,0.6334 -0.0342,0.445 0.1028,1.7978 0.0858,2.6538 -0.0173,0.8562 0.1881,1.0102 0.2736,1.2157 0.0857,0.2055 0.4795,0.5819 0.7023,0.89 0.2226,0.3082 0.2737,0.8218 0.7359,1.3528 0.4623,0.5309 0.2569,1.1641 0.3255,1.7463 0.0686,0.5823 -0.0687,1.8833 0,2.5682 0.0686,0.6849 0.0171,4.4686 0.0686,5.5814 0.0514,1.1129 0.1198,2.0031 0.154,2.7396 0.0342,0.7363 -0.0686,3.5441 0.0856,4.0406 0.154,0.4966 -0.1369,0.7191 -0.1542,1.0787 -0.0172,0.3595 -0.034,1.1643 0.0515,1.4895 0.0853,0.3251 -0.0855,2.6366 -0.0855,3.1674 0,0.5307 -0.3596,0.4964 -0.548,0.4964 -0.1884,0 -0.7875,0.12 -1.2841,0.0514 -0.4966,-0.0686 -2.0203,-0.0684 -2.4998,-0.0854 -0.4796,-0.0173 -0.3596,-0.3254 -0.5479,-0.5823 -0.1884,-0.2569 -0.5307,-0.9759 -0.6163,-1.3526 -0.0856,-0.3766 -0.3253,-1.1813 -0.291,-1.6093 0.0343,-0.4281 -0.3939,-1.832 -0.548,-2.4827 -0.154,-0.6506 0.0686,-2.6709 0.2398,-3.6468 0.1711,-0.9759 0.3251,-2.2772 0.6677,-3.2532 0.3424,-0.9759 0.3764,-1.1641 0.291,-1.3523 -0.0855,-0.1885 -0.291,-0.3768 -0.839,-0.7878 -0.548,-0.4109 -1.4211,-0.9245 -2.0547,-1.3527 -0.6335,-0.428 -2.4653,-1.9173 -3.3557,-2.6364 -0.8902,-0.7191 -1.8319,-1.5409 -2.6365,-2.0888 -0.8048,-0.5481 -2.1746,-1.3699 -2.8762,-1.6951 -0.7022,-0.3251 -1.8523,-1.3549 -2.2162,-1.5289 -0.333,-0.1592 -0.198,-0.1318 -0.6775,-0.1832 -0.2042,-0.0219 -0.5306,0.0514 -1.0272,0.1883 -0.4966,0.1368 -1.7977,1.0787 -2.5509,1.7293 -0.7533,0.6507 -1.5581,1.695 -2.2943,2.9791 -0.736,1.2842 -1.4553,2.9448 -1.7122,3.7839 -0.2568,0.8389 -0.2911,1.1641 -0.4108,1.9004 -0.1199,0.7362 -0.2227,2.26 -0.3425,2.8251 -0.1199,0.565 0.1369,1.1813 0.1542,1.9688 0.017,0.7876 -0.0003,1.9689 -0.0687,2.6707 -0.0683,0.7021 0.3254,2.0205 0.3254,2.0205 0,0 -1.6609,0.9073 -2.7222,1.4895 -1.0616,0.5822 -1.9177,1.0273 -2.7909,1.3354 -0.8732,0.3082 -1.0786,0.685 -1.6437,0.8392 -0.565,0.1541 -1.3012,0.1709 -1.7291,0.1027 -0.428,-0.0687 -1.1985,0.3081 -1.6095,0.4791 -0.4108,0.1713 -0.6505,0.5482 -0.8047,0.8218 -0.1539,0.2741 0.3081,1.1813 0.6677,1.9004 0.3594,0.7192 1.0272,1.2672 1.3013,1.6609 0.274,0.3936 0.2396,1.3014 0.3424,2.8423 0.1028,1.5409 0,3.9891 0.017,5.2905 0.017,1.3011 0.1884,2.5682 0.1199,4.0918 -0.0684,1.5237 0.017,3.1846 -0.0343,3.8523 -0.0513,0.6677 -0.4278,1.0959 -0.6162,1.695 -0.1884,0.599 -0.6506,1.5068 -0.8216,1.9518 -0.1713,0.445 0.017,0.3254 0.3936,0.5308 0.3767,0.2055 0.5309,0.3764 1.0959,0.5991 0.5651,0.2228 1.3182,0.8046 1.6264,1.0446 0.3081,0.2395 0.3766,0.599 0.5992,0.8386 0.2224,0.2398 0.6506,0.394 0.993,0.7191 0.3425,0.3254 2.3284,2.3973 3.407,3.3045 1.0788,0.9073 3.2018,2.8423 3.7668,3.3045 0.565,0.4622 0.3596,0.6677 0.2741,0.9586 -0.0855,0.291 -0.4451,0.8731 -0.7192,1.4211 -0.2739,0.5481 -0.3767,1.1301 -0.3423,1.4039 0.0342,0.2739 0.5305,0.12 0.9072,0.1713 0.3767,0.0514 0.8392,0.7191 1.4382,1.1813 0.5993,0.4623 1.7805,1.3526 2.6538,2.0546 0.8732,0.702 2.0204,1.4036 2.3799,1.6434 0.3597,0.2398 0.3767,0.839 0.7705,1.0957 0.3937,0.2569 1.8833,1.2327 2.9105,1.9348 1.0274,0.7021 2.2774,1.6266 2.8424,2.3286 0.565,0.7021 0.9244,0.5991 1.2155,0.3596 0.2908,-0.2395 0.548,-0.5309 0.839,-0.7705 0.291,-0.2395 0.6505,-0.3425 1.3354,-0.7534 0.6848,-0.4109 2.0031,-1.0786 2.7738,-1.4552 0.7704,-0.3766 0.7017,0.2909 0.736,1.1471 0.0343,0.8561 0.4966,2.8763 0.8562,5.0506 0.3594,2.1744 0.5477,4.0064 0.1712,5.8384 -0.3768,1.832 -0.6508,2.4655 -1.678,4.52 -1.0274,2.0545 -1.9006,3.3557 -3.1332,4.948 -1.2328,1.5923 -2.5509,2.825 -3.1333,3.4413 -0.5821,0.6163 -1.2667,0.9932 -1.9004,1.267 -0.6336,0.2739 -1.3014,1.0273 -2.825,1.7978 -1.5237,0.7705 -2.1059,0.8047 -3.8862,0.9758 -1.7808,0.1711 -2.4829,0.0514 -2.4829,0.0514 0,0 -0.565,-0.7021 -1.0615,-1.6265 -0.4965,-0.9246 -0.9244,-1.2328 -1.2326,-1.7805 -0.3081,-0.5478 -0.0686,-0.8732 -0.3937,-1.404 -0.3252,-0.5309 -0.5136,-0.6335 -0.7877,-1.2668 -0.274,-0.6334 -0.1027,-1.3184 -0.1713,-1.695 -0.0685,-0.3765 -0.3594,-1.8834 -0.4278,-3.3729 -0.0685,-1.4895 -0.4454,-3.0647 -0.3597,-4.6913 0.0855,-1.6265 0.1026,-3.0303 0.1199,-3.9548 0.0171,-0.9245 -0.3595,-1.267 -0.7362,-1.4894 -0.3766,-0.2226 -0.6677,-0.5651 -0.9417,-0.8562 -0.2739,-0.2911 -0.9072,-0.5821 -1.2669,-0.7362 -0.3595,-0.154 -1.0785,-0.6336 -1.7976,-1.2327 -0.7193,-0.599 -1.5411,-1.6095 -2.2773,-2.2429 -0.7361,-0.6335 -0.8903,-0.3766 -1.1985,-0.4794 -0.3081,-0.1027 -0.6849,-0.2911 -0.9246,-0.5309 -0.2395,-0.2397 -1.1126,-1.1126 -1.5237,-1.3868 -0.4108,-0.2741 -1.4553,-0.9416 -1.9175,-1.6093 -0.4622,-0.6677 -1.1301,-0.3425 -1.3868,0 -0.2569,0.3425 -0.5823,0.993 -0.976,1.7463 -0.3937,0.7535 -0.6506,1.7637 -0.9587,2.8081 -0.3082,1.0442 -0.4108,1.7634 -0.565,3.133 -0.154,1.3695 -0.0686,2.8422 -0.0856,4.5029 -0.0172,1.6607 0.2912,2.9963 0.5652,3.9723 0.2738,0.9759 0.565,2.6023 1.0441,4.0748 0.4794,1.4724 1.4555,3.5954 2.26,5.1191 0.8047,1.5236 1.5241,2.3629 2.3628,3.236 0.8389,0.8732 2.2771,2.568 3.3386,3.7493 1.0616,1.1814 3.3728,3.1334 4.7255,4.3489 1.3526,1.2154 2.8762,2.3286 4.2804,3.2702 1.4039,0.9416 3.4414,2.4482 5.0164,3.3387 1.575,0.8904 4.7427,2.5168 5.8554,3.1159 1.1128,0.5991 4.1264,0.9932 5.7357,1.1986 1.6094,0.2055 4.6911,0.548 6.1294,0.702 1.4381,0.1541 3.0816,-0.4281 3.9208,-0.7706 0.8389,-0.3426 1.9687,-0.3424 3.3556,-0.7876 1.3868,-0.4452 3.2357,-1.9346 4.0576,-2.3454 0.8218,-0.411 2.1919,-0.8562 3.1332,-1.4212 0.9418,-0.565 4.0577,-3.8181 5.3765,-5.2391 1.318,-1.421 1.6092,-2.5169 2.4823,-4.3315 0.8733,-1.8148 0.9932,-2.1059 1.8321,-4.2461 0.839,-2.1402 1.01,-3.0476 1.421,-4.6398 0.4109,-1.5923 0.4282,-4.7941 0.4795,-5.9412 0.0514,-1.1471 0.1197,-3.527 -0.0513,-5.7014 -0.1694,-2.1525 -0.708,-5.1932 -0.7686,-5.2698 -0.0044,-0.0033 -0.0063,-0.0049 -0.002,-0.0035 0.0004,0.0002 0.0012,0.0027 0.002,0.0035 0.0487,0.0332 0.59,0.3188 0.8882,0.4759 0.3252,0.1711 1.2328,0.8904 1.8663,1.1985 0.6335,0.3082 1.969,1.2498 2.9106,1.8321 0.9416,0.5822 1.2158,0.1026 1.4382,-0.0857 0.2226,-0.1884 0.565,-0.428 1.113,-0.6847 0.5477,-0.2569 1.4038,-0.7877 2.0372,-1.1644 0.6335,-0.3765 1.25,-0.9588 1.8665,-1.2497 0.6163,-0.2909 2.1741,-0.8218 2.9104,-1.267 0.7364,-0.4452 1.1472,-0.9246 1.5923,-1.147 0.445,-0.2226 1.4209,-0.6164 2.0717,-1.1474 0.6505,-0.5308 0.9247,0.1201 1.3523,0.5823 0.4282,0.4623 1.5926,0.873 2.3629,1.3866 0.7705,0.5137 1.4213,0.6337 2.3115,1.1643 0.8902,0.5307 1.8661,1.267 2.3456,1.5409 0.4795,0.2739 1.1469,0.5307 2.2769,1.2328 1.13,0.702 3.0475,1.4211 4.2462,1.9518 1.1986,0.5306 2.0373,1.3525 2.7393,1.5579 0.702,0.2055 2.294,1.1643 3.5953,1.9007 1.301,0.7363 3.0133,2.0543 3.9036,2.6193 0.8903,0.5651 2.6198,1.6437 3.3044,2.1745 0.6848,0.5309 0.9246,0.2226 1.3013,-0.2741 0.3765,-0.4965 0.8903,-1.0956 1.4212,-1.5922 0.5306,-0.4967 1.9688,-1.7462 2.5339,-2.2428 0.565,-0.4966 0.4451,-0.3596 0.7704,-0.1711 0.3252,0.1884 1.3698,1.3354 2.5852,2.4825 1.2155,1.1471 2.0888,2.123 2.0888,2.123 0,0 0.1199,0.8391 0.0685,1.4724 -0.0514,0.6334 -0.0685,2.1573 0,3.9379 0.0684,1.7806 -0.017,4.1089 -0.0685,4.8453 -0.0514,0.7363 0.2226,0.5991 0.5136,0.7191 0.2912,0.12 1.3013,0.9759 1.678,1.3526 0.3768,0.3766 0.7532,0.7877 1.8491,1.695 1.0959,0.9072 2.7394,2.3456 3.4583,3.0476 0.7192,0.7021 2.2943,1.9859 2.5854,2.2771 0.2911,0.2911 0.9245,0.993 1.0786,1.2497 0.1542,0.2569 0.8219,0.8391 1.2843,1.3354 0.4621,0.4964 0.7874,-0.0684 0.8732,-0.1882 0.0855,-0.1198 0.4792,-0.4452 0.7704,-0.5992 0.2912,-0.1541 0.599,-0.5307 0.7875,-0.839 0.1885,-0.3081 0.4794,-0.5136 0.7876,-0.8391 0.3082,-0.3254 0.548,-0.5821 1.0102,-0.6847 0.4621,-0.1027 0.9416,0.0342 0.9416,0.0342 0,0 0.0172,0.5136 -0.017,0.856 -0.0343,0.3423 -0.1712,0.8562 -0.3082,1.2157 -0.1371,0.3595 -0.3938,0.4279 -0.6163,0.702 -0.2226,0.2741 -0.8562,1.3355 -1.2841,1.8149 -0.428,0.4793 -0.3769,0.5136 -0.411,0.6163 -0.034,0.1027 0.3936,0.6163 0.4965,0.7705 0.1026,0.154 -0.0514,0.1883 -0.1028,0.3595 -0.0514,0.1711 0.5136,0.0856 0.9075,0.1884 0.3938,0.1027 0.9073,0.6848 1.4552,1.1301 0.5478,0.4452 1.986,2.2085 2.8423,3.1159 0.8562,0.9073 2.5682,2.1403 3.5269,2.9621 0.9588,0.8218 1.7291,1.4552 2.6023,2.0032 0.8733,0.5479 1.2157,0.6163 1.3184,0.6847 0.1028,0.0684 0.5994,0.2398 0.9931,0.2398 0.3936,0 0.9932,-0.2398 1.1985,-0.2569 0.2054,-0.0171 1.147,0.0856 1.3868,0.1197 0.2398,0.0341 1.6437,-0.2224 1.9689,-0.2224 0.3251,0 1.7634,0.1711 2.2085,0.1711 0.4454,0 2.2601,-0.2569 2.7223,-0.1541 0.4623,0.1027 2.671,0 3.9038,-0.2569 1.2326,-0.2568 3.7838,-0.2395 4.5543,-0.1198 0.7704,0.1198 1.5067,0.0684 2.0373,0.2225 0.5306,0.1541 1.0101,0.2569 1.2326,0.0857 0.2226,-0.1711 0.1542,-0.7021 0.1542,-0.7021 0,0 -0.2054,-0.2739 -0.3938,-0.3252 -0.1884,-0.0514 -0.565,-0.4794 -0.7018,-0.7876 -0.1369,-0.3081 -0.6509,-0.9758 -1.0274,-1.4894 -0.3765,-0.5137 -0.3254,-0.5823 -0.4282,-0.9074 -0.1026,-0.3253 -0.3766,-2.4313 -0.5137,-3.7155 -0.1369,-1.2841 -0.2394,-2.2258 -0.5136,-3.3386 -0.2741,-1.113 -0.3422,-3.5268 -0.3592,-4.2973 -0.0172,-0.7705 -0.2227,-1.695 -0.4111,-1.8835 -0.1882,-0.1884 -0.4108,-0.0684 -0.7877,0.1027 -0.3768,0.1711 -0.582,-0.1541 -1.1127,-0.4279 -0.5306,-0.274 -0.4796,-1.0103 -0.4108,-1.678 0.0686,-0.6677 0.7875,-1.2841 1.7977,-1.4209 1.0101,-0.1369 1.5066,0.3765 1.8318,0.9416 0.3252,0.565 0.0686,1.2497 0.1884,1.5923 0.1199,0.3424 0.7875,0.0169 1.1644,0.0514 0.3767,0.0342 0.736,-0.1541 0.9244,-0.1199 0.1885,0.0343 2.2771,0.1712 2.8935,0.2055 0.6164,0.0343 2.8251,0.1368 3.3901,0.1368 0.5651,0 1.1641,0.1885 1.3695,0.2398 0.2056,0.0514 0.6338,-0.1027 1.0104,-0.0686 0.3764,0.034 1.0272,0.4109 1.421,0.4622 0.3938,0.0514 1.0957,-0.1199 1.4039,0.0172 0.3081,0.137 1.13,1.3011 1.7807,2.0203 0.6506,0.7191 0.6334,-0.1885 0.6505,-0.4623 0.0169,-0.2739 -0.1028,-0.8732 -0.1542,-1.4211 -0.0513,-0.5481 0.0857,-2.1059 0.1201,-2.705 0.0342,-0.5991 0.0856,-4.7085 0.0342,-5.77 -0.0514,-1.0616 0.0513,-3.9721 0.0513,-6.0437 0,-2.0715 0.0855,-4.3317 0.137,-5.3417 0.0514,-1.01 -0.3252,-0.8732 -0.6848,-1.1129zm-67.7583 -24.319l0 0c0.0113,-0.4559 0.0571,-0.7751 0.0571,-0.7751 0.034,-0.0115 0.7408,-0.0799 1.2766,0.0457 0.5353,0.1253 0.7288,0.262 1.3215,0.2962 0.5928,0.0341 1.3224,0.1367 1.6982,0.1482 0.376,0.0114 1.0142,0.0912 1.0142,0.0912 0,0 -0.0685,1.8004 -0.0228,2.5069 0.0458,0.7067 0.0573,1.7437 0.0913,2.0059 0.034,0.2622 0.0571,0.8318 0.0455,1.0827 -0.0114,0.2508 0.0684,0.8661 0.0911,1.0826 0.023,0.2168 0.0232,0.8662 0.0458,1.003 0.0227,0.1369 0.0799,0.6153 -0.0684,0.7294 -0.1484,0.1141 -0.2394,-0.0572 -0.6041,-0.4672 -0.3645,-0.4101 -1.2992,-1.4704 -1.7548,-1.7779 -0.4561,-0.3076 -1.402,-0.98 -1.7211,-1.1965 -0.319,-0.2166 -1.2077,-0.5696 -1.2307,-0.7179 -0.0229,-0.1483 -0.0911,-0.775 -0.0684,-1.0141 0.0226,-0.2396 -0.2282,-0.7298 -0.1938,-1.0031 0.0341,-0.2735 0.0113,-1.5841 0.0228,-2.0399z"/>
   <path class="fil1" d="M174.4907 97.6538c0.0684,1.1128 -0.0514,1.6605 -0.0514,2.14 0,0.4795 -0.0345,1.0789 -0.3768,1.1986 -0.3424,0.1198 -0.2227,-0.3938 -0.565,-0.9588 -0.3425,-0.5651 -0.5479,-0.873 -2.3454,-0.8903 -1.7979,-0.0172 -3.9895,-0.1882 -4.6571,-0.1026 -0.6677,0.0854 -1.9692,-0.0341 -2.7053,-0.0514 -0.736,-0.0173 -1.6947,-0.0855 -1.8831,-0.0514 -0.1884,0.034 -0.6164,0.1713 -0.8218,0.154 -0.2056,-0.0172 -0.4622,0.1201 -0.5994,-0.5136 -0.1369,-0.6336 -0.1883,-1.8491 -1.9688,-2.3114 -1.7806,-0.4622 -2.6198,-0.5307 -3.4072,0.2569 -0.7876,0.7875 -1.284,1.6265 -1.4211,2.4655 -0.1371,0.8389 -0.0171,1.5238 0.1882,2.1572 0.2055,0.6335 0.7877,1.0957 1.3527,1.3012 0.5649,0.2055 1.1642,0.1711 1.267,0.2225 0.1026,0.0514 0.137,0.1711 0.137,0.7705 0,0.5993 0.1369,2.3116 0.3766,3.7839 0.2397,1.4722 0.6506,4.8281 0.8562,6.1292 0.2055,1.3012 0.154,2.0035 0.2055,2.1917 0.0513,0.1882 -0.0174,0.4791 0.4278,0.599 0.4453,0.1201 0.839,0.5652 0.9246,0.8904 0.0857,0.3252 0.2052,0.5651 -0.8048,0.6847 -1.01,0.1199 -4.6567,0.1371 -5.9923,0.1371 -1.3353,0 -2.7051,-0.0686 -3.6981,-0.0172 -0.993,0.0514 -2.9277,0.2395 -3.8522,0.3082 -0.9246,0.0686 -1.3698,0.0686 -1.7808,0.2227 -0.4108,0.1541 -0.9931,0.1882 -1.1813,-0.1885 -0.1881,-0.3766 -0.0513,-0.5134 0.2398,-0.7875 0.2911,-0.2741 0.9932,-0.9075 1.0103,-1.1644 0.017,-0.2568 0.0172,-1.0444 0.0513,-1.6265 0.0341,-0.5821 0.3936,-5.7867 0.445,-7.0709 0.0515,-1.2841 0.1368,-2.6709 0.2226,-3.2358 0.0856,-0.565 -0.171,-1.0101 0.4282,-1.3355 0.599,-0.3254 1.318,-0.7191 1.6262,-1.6265 0.3082,-0.9074 0.651,-2.1059 0.3084,-2.825 -0.3425,-0.7191 -0.856,-1.4038 -1.8491,-1.7464 -0.9932,-0.3425 -1.2843,-0.7533 -2.0204,-0.7191 -0.7362,0.0343 -1.575,0.3252 -2.1744,0.8218 -0.5992,0.4966 -1.0616,1.0273 -1.2156,1.2841 -0.1542,0.2569 -0.2739,1.2498 -0.2739,1.2498 0,0 -2.6881,0.5993 -4.0407,0.6506 -1.3526,0.0514 -2.5854,0.0517 -3.3387,0.2227 -0.753,0.1712 -2.0204,0.2226 -2.4654,0.274 -0.4449,0.0514 -0.6506,0.0001 -0.9758,0.4452 -0.3252,0.445 -0.7362,1.1641 -1.0957,1.5751 -0.3595,0.4109 -1.2501,0.7704 -1.1643,-0.274 0.0856,-1.0443 -0.1714,-4.2974 -0.1542,-5.5816 0.0173,-1.2841 0.2228,-4.2805 0.2398,-5.5472 0.0171,-1.2668 0.0857,-3.8866 0.0513,-4.7255 -0.0341,-0.8389 -0.1028,-1.695 0.2741,-2.0031 0.3768,-0.3082 0.7706,-0.0514 1.0958,0.3938 0.3251,0.4452 1.2158,1.0616 2.26,1.1813 1.0442,0.1198 1.9004,0.3425 3.3556,0.565 1.4553,0.2226 3.3557,0.4621 4.0749,0.3766 0.719,-0.0854 1.815,-0.1198 1.815,-0.1198 0,0 0.5647,1.0617 1.5749,1.7293 1.0104,0.6677 1.5751,1.2668 2.6196,0.9931 1.0446,-0.274 1.661,-0.5309 2.243,-1.3698 0.5821,-0.839 1.1302,-2.5169 0.8048,-3.1846 -0.3255,-0.6677 -0.428,-1.1984 -0.9759,-1.5923 -0.5481,-0.3938 -1.3869,-0.5821 -1.3869,-0.5821 0,0 -0.1884,-2.996 -0.3424,-4.5199 -0.1541,-1.5239 -0.1541,-4.7255 -0.1541,-6.3178 0,-1.5922 0.0001,-2.9277 0.0343,-4.674 0.0339,-1.7464 -0.1029,-5.667 -0.12,-7.6359 -0.017,-1.9691 -0.1539,-3.3559 -0.1369,-5.1877 0.0171,-1.8322 0.1713,-3.6984 0.154,-4.8455 -0.0171,-1.1471 -0.2913,-3.5614 -0.3767,-4.7941 -0.0854,-1.2327 -0.137,-3.1159 -0.1884,-4.4171 -0.0515,-1.3011 0.0515,-1.4552 -0.0513,-2.1916 -0.1026,-0.7363 -0.12,-1.5922 -0.2226,-2.2772 -0.1028,-0.6845 -0.1882,-2.0713 -0.1882,-2.0713 0,0 -2.0208,-0.0345 -4.0067,-1.25 -1.9858,-1.2155 -3.7837,-2.3627 -4.5541,-3.2532 -0.7704,-0.89 -1.4722,-1.4723 -1.5408,-1.849 -0.0688,-0.3764 -0.6338,-1.0273 -0.6338,-1.6264 0,-0.599 -0.0514,-1.01 0.1028,-1.0957 0.154,-0.0856 0.2224,0.1199 1.4382,0.839 1.2156,0.7191 2.4142,1.5922 3.8694,1.969 1.4553,0.3766 3.2017,0.4621 4.1776,0.4964 0.9758,0.0343 1.267,0 1.267,0 1.284,-0.1541 3.3557,-0.6849 4.5713,-1.13 1.2155,-0.445 1.9862,-0.7705 3.0133,-1.4382 1.0274,-0.6677 1.661,-1.2155 2.5169,-2.2428 0.8559,-1.0272 1.8149,-2.6711 2.3969,-3.9895 0.582,-1.3182 1.0614,-3.0303 1.2498,-4.3314 0.1884,-1.3013 0.291,-3.3731 -0.0684,-4.8967 -0.3597,-1.5237 -0.5994,-2.671 -1.1301,-3.5268 -0.5306,-0.8564 -1.4552,-2.3114 -1.4552,-2.3114 0,0 0.7704,0.1368 1.3868,0.6332 0.6163,0.4968 1.5063,1.661 1.9858,2.2773 0.4796,0.6163 1.4383,1.8149 2.0032,2.7222 0.565,0.9072 0.9932,2.3968 1.3184,3.6982 0.3251,1.3014 0.6677,5.4445 0.3937,6.6773 -0.2739,1.2327 -1.1984,4.52 -2.3625,6.4204 -1.1645,1.9005 -1.7979,2.8937 -2.5683,3.5784 -0.7704,0.6847 -1.5237,1.2668 -1.8148,1.7634 -0.291,0.4966 -0.3253,1.6607 -0.3768,2.1914 -0.0514,0.5308 -0.2397,1.5409 -0.1884,2.4655 0.0514,0.9245 0.4285,3.5442 0.4625,4.8797 0.034,1.3354 0.154,4.0404 0.2739,5.393 0.1198,1.3527 0.2741,3.9723 0.2397,5.3077 -0.0343,1.3354 -0.2399,4.075 -0.1713,5.6158 0.0685,1.541 0.1369,3.4582 0.1027,4.8624 -0.0342,1.404 -0.1029,3.4414 0.0683,4.5371 0.1715,1.0957 0.1886,3.835 0.2911,4.948 0.1028,1.1129 0.0004,1.9176 0.0174,2.9277 0.017,1.01 0.1885,3.1161 0.3766,4.2632 0.1881,1.1471 0.3423,3.253 0.3423,3.253 0,0 -0.7359,-0.2398 -1.3697,0.565 -0.6336,0.8048 -1.0956,1.3182 -1.1301,2.3798 -0.0341,1.0616 0.1711,2.0546 0.7019,2.5682 0.531,0.5136 1.7979,1.0616 2.6711,1.0786 0.873,0.0171 1.5236,-0.2056 1.9518,-0.8047 0.4282,-0.5991 0.6334,-1.1301 0.7705,-1.1814 0.137,-0.0514 0.4451,-0.2227 0.2911,-0.4109 -0.1541,-0.1883 -0.3251,-0.7019 -0.0684,-0.8902 0.2569,-0.1885 0.3595,-0.1369 1.3011,-0.2739 0.9416,-0.1371 1.6953,-0.1373 2.9106,-0.2227 1.2156,-0.0855 1.7637,-0.1881 2.8594,-0.4621 1.0956,-0.2741 2.0372,-0.3254 3.253,-0.3938 1.2157,-0.0684 2.2599,-0.1025 2.8249,-0.2739 0.5651,-0.1713 0.942,-0.2739 1.0104,-0.7191 0.0684,-0.4452 0.2394,-0.6677 0.4963,-0.7191 0.2568,-0.0514 0.3255,0.1713 0.4281,0.6677 0.1028,0.4964 0.2053,2.26 0.2053,3.8009 0,1.5409 0.0344,3.8179 0.1885,4.5028 0.1542,0.6847 0.0858,1.1984 0.0173,2.0545 -0.0687,0.8561 -0.017,2.6027 0.0514,3.7154z"/>
   <path class="fil1" d="M122.9043 85.2753c-0.7017,0.8732 -1.2157,1.4723 -1.8491,1.9174 -0.6334,0.4453 -0.89,0.8732 -1.3694,-0.154 -0.4796,-1.0273 -0.9418,-1.9689 -0.8905,-2.9791 0.0514,-1.0102 0.0514,-2.123 -0.4109,-2.8763 -0.4623,-0.7534 -1.0275,-1.7806 -2.8081,-2.2086 -1.7804,-0.428 -5.119,-1.1644 -6.6598,-1.0273 -1.541,0.137 -3.0992,0.7361 -3.4759,0.8389 -0.3765,0.1027 -1.0271,0.5823 -1.3867,0.8562 -0.3595,0.2739 -1.2156,0.9932 -1.5067,1.2841 -0.291,0.2909 -1.1128,0.9759 -1.1128,0.9759 0,0 0.0171,-0.8218 0.7534,-1.7806 0.736,-0.9589 2.4481,-2.7905 3.6638,-3.7323 1.2156,-0.9418 2.3797,-1.6609 2.8762,-2.0205 0.4966,-0.3596 1.2842,-0.8559 2.7224,-1.3011 1.438,-0.4452 2.8591,-0.7534 4.4173,-0.6678 1.5578,0.0857 2.6878,0.4112 3.8008,1.0103 1.113,0.599 2.4486,1.3012 3.3046,2.1229 0.8558,0.8218 1.4722,1.7807 1.9173,2.3627 0.4452,0.5821 0.976,1.0616 1.2328,1.0787 0.2569,0.017 0.5481,-0.2225 0.4967,-0.7876 -0.0514,-0.565 0.0168,-2.2259 -0.0688,-3.1161 -0.0854,-0.8902 -0.0684,-2.4143 -0.0684,-3.7325 0,-1.3182 -0.1884,-3.287 -0.2055,-4.7766 -0.0169,-1.4894 -0.2054,-5.2735 -0.1884,-6.4376 0.017,-1.1641 -0.1199,-2.5511 -0.2738,-3.4073 -0.1542,-0.8559 -0.3766,-1.575 -0.5136,-1.7291 -0.1372,-0.1541 -0.2741,-0.1882 -0.6678,0.1027 -0.3938,0.2909 -1.0446,0.5309 -1.1985,0.6337 -0.1542,0.1027 -0.4107,0.3249 -0.8047,0.6504 -0.3937,0.3254 -1.1471,0.839 -1.4894,1.1127 -0.3426,0.2741 -0.565,0.7364 -0.7706,1.0445 -0.2054,0.3082 -0.8732,0.7019 -2.0544,0.2396 -1.1814,-0.4623 -2.6536,-1.1471 -3.8523,-1.541 -1.1986,-0.3936 -2.705,-0.8901 -3.6468,-1.0786 -0.9418,-0.1882 -1.7634,-0.3936 -2.2086,-0.9245 -0.4452,-0.5305 -0.5479,-0.6333 -0.2056,-1.4211 0.3425,-0.7877 0.5138,-1.4038 0.7706,-1.729 0.2569,-0.3254 0.3254,-0.3426 0.1884,-1.4725 -0.1371,-1.1301 -0.3254,-2.5511 -0.3425,-3.5784 -0.0171,-1.0273 -0.137,-3.3557 -0.0856,-4.1432 0.0514,-0.7878 0.0856,-1.4212 -0.0684,-1.7978 -0.1542,-0.3767 -0.6508,-0.8391 -0.8732,-1.404 -0.2226,-0.5651 -0.3767,-0.7534 0.2911,-1.5409 0.6676,-0.7876 0.7875,-0.8046 1.3525,-1.1641 0.5651,-0.3596 1.558,-0.822 1.558,-0.822 0.7876,-0.3425 1.7462,-0.7021 2.8249,-1.3698 1.0788,-0.6677 1.7467,-1.3354 3.0134,-1.9518 1.2667,-0.6164 2.2086,-1.1471 3.1502,-1.8319 0.9416,-0.6849 1.7462,-1.0958 2.5851,-1.7293 0.8393,-0.6334 2.5684,-1.9003 3.5615,-2.5511 0.993,-0.6505 1.849,-1.3868 1.849,-1.3868 0,0 0.4107,-0.3082 0.4964,0.0856 0.0856,0.3939 0.2396,1.2498 0.3596,2.106 0.12,0.8561 0.3253,2.1229 0.7021,2.5681 0.3765,0.4452 1.5408,1.7121 2.5168,2.4311 0.9758,0.7191 2.7052,1.935 3.7324,2.4654 1.0274,0.5309 2.1745,0.8733 2.1745,0.8733 0,0 -1.2672,0.7191 -3.0818,0.8904 -1.8149,0.1711 -5.0681,-0.0172 -6.6774,-0.1713 -1.6094,-0.1541 -3.2016,-0.3936 -4.1604,-1.0957 -0.9589,-0.7021 -2.2084,-1.5411 -3.0989,-2.1744 -0.8905,-0.6336 -1.6779,-1.0959 -1.6779,-1.0959 0,0 -0.8218,1.0787 -0.976,1.9177 -0.154,0.839 0.0343,2.0714 0.1542,3.2359 0.1198,1.1641 0.1027,4.0234 0.2054,6.2833 0.1028,2.2601 0.1542,3.9036 -0.017,5.2048 -0.1712,1.3013 -0.2567,3.0477 -0.0684,4.1434 0.1883,1.0957 0.6334,1.9348 1.0442,2.3114 0.411,0.3766 0.6677,0.8902 1.8491,0.0857 1.1814,-0.8048 2.2087,-1.4041 3.1845,-2.106 0.976,-0.702 1.3698,-1.0786 3.0134,-2.2086 1.6437,-1.13 3.6981,-2.654 4.9651,-3.4585 1.2669,-0.8046 2.2087,-1.5751 2.8592,-1.8833 0.6504,-0.3081 1.1642,-0.2911 0.7362,0.5307 -0.4281,0.8218 -0.8562,1.4039 -0.8733,2.0031 -0.0169,0.5993 -0.1024,2.5512 -0.0854,3.9037 0.017,1.3525 -0.0859,2.1059 -0.0173,3.0818 0.0687,0.9759 0.2912,5.102 0.3426,6.215 0.0515,1.1129 0,2.277 0.0169,3.1501 0.0171,0.8731 0.3767,2.397 0.3597,3.8865 -0.017,1.4895 -0.1028,2.2258 -0.0514,2.6366 0.0514,0.4109 0.3082,1.1129 0.9246,1.4212 0.6162,0.3081 1.3525,0.565 0.6846,0.9758 -0.6676,0.411 -2.397,1.4553 -3.5441,2.3627 -1.1471,0.9075 -3.1669,2.1576 -4.5197,3.3729 -1.3528,1.2155 -2.9962,2.6878 -4.0578,3.5268 -1.0616,0.8391 -1.9863,1.5925 -2.6882,2.4657z"/>
   <path class="fil1" d="M100.0648 74.8826c-0.2568,0.2568 -0.4108,0.3423 -0.7704,0.5306 -0.3596,0.1885 -0.8392,0.5136 -1.1474,1.1301 -0.308,0.6163 -0.599,1.0104 -0.5477,1.404 0.0514,0.3936 0.2739,0.9075 0.3252,1.1813 0.0514,0.274 0.1024,1.4037 -1.1642,0.3423 -1.2669,-1.0613 -4.6227,-2.9618 -6.1294,-3.835 -1.5065,-0.8731 -5.5473,-2.7224 -7.0367,-3.51 -1.4896,-0.7875 -4.6055,-2.2772 -6.0267,-2.979 -1.4212,-0.7019 -2.5512,-1.2155 -2.9448,-1.7292 -0.3938,-0.5136 -0.411,-1.1985 -0.12,-1.5581 0.2912,-0.3596 0.4966,-0.9072 0.685,-1.3181 0.1882,-0.4109 0.0513,-2.2772 -0.0172,-3.4757 -0.0686,-1.1983 -0.0173,-1.8491 0,-2.3114 0.0172,-0.4622 -0.1712,-2.5851 -0.1199,-3.7152 0.0515,-1.1301 -0.0684,-2.8936 0.0344,-3.9893 0.1026,-1.0957 0.1882,-2.1059 0.1195,-3.6469 -0.0681,-1.5408 -0.445,-3.3215 -0.3249,-4.7768 0.1196,-1.4552 0.1367,-2.8593 0.0854,-3.4243 -0.0514,-0.565 -0.1882,-1.0787 -0.6677,-1.6437 -0.4797,-0.565 -0.9074,-1.0443 -0.9933,-1.3012 -0.0853,-0.2568 -0.1198,-0.5822 0.1028,-0.8047 0.2226,-0.2225 0.5992,-0.1541 1.1301,-0.445 0.5307,-0.2911 1.7465,-1.1641 2.6026,-1.6609 0.856,-0.4964 1.541,-0.9416 1.541,-0.9416 0.5818,-0.3938 1.7976,-1.404 2.6023,-1.8321 0.8044,-0.4279 1.7804,-0.8731 1.8832,-1.13 0.1026,-0.2568 0.24,-1.13 0.24,-1.3525 0,-0.2225 -0.086,-0.5821 -0.1201,-0.9417 -0.0341,-0.3595 -0.291,-1.0104 0.7364,-0.8391 1.0272,0.1713 2.277,0.7363 3.0818,1.4041 0.8044,0.6677 1.5406,1.2841 1.8659,1.7464 0.3253,0.4622 0.0859,0.4963 1.25,0.8559 1.164,0.3595 2.3625,0.9418 3.1673,1.4212 0.8047,0.4793 1.2329,0.8902 2.4484,1.5409 1.2155,0.6506 2.1571,1.2497 3.2701,1.8147 1.1129,0.5651 2.6194,1.3526 3.9549,2.0032 1.3355,0.6507 2.0548,0.9758 2.1745,1.1643 0.1198,0.1884 0.3082,0.7361 0.1198,0.9759 -0.1884,0.2397 -0.7706,1.0443 -0.7363,2.3284 0.0343,1.2841 0.2742,5.0678 0.3255,6.2664 0.0514,1.1985 0.2224,2.8422 0.3252,3.8352 0.1026,0.993 0.1713,3.0134 0.137,4.5543 -0.0343,1.5409 0.1199,6.1464 0.0343,7.6018 -0.0858,1.4553 -0.0174,4.0575 0.017,4.3999 0.0343,0.3425 -0.1199,0.5308 0.137,1.0102 0.2568,0.4794 0.5479,0.8904 0.582,1.0617 0.0344,0.171 0.3252,0.2054 -0.3424,0.4622 -0.6678,0.2569 -2.8765,1.8832 -3.6813,2.4482 -0.8046,0.5651 -1.8318,1.4212 -2.0887,1.678z"/>
   <path class="fil0" d="M96.6063 72.7596c0.1028,-0.5136 0.0685,-1.5923 -0.0341,-2.0375 -0.1028,-0.4452 -0.1028,-1.4382 -0.1712,-2.3113 -0.0684,-0.8733 -0.1369,-5.3075 -0.1714,-7.4821 -0.0341,-2.1745 -0.1709,-5.7697 -0.1882,-7.7215 -0.017,-1.9519 -0.0855,-5.5473 -0.1541,-7.3107 -0.0688,-1.7635 -0.3081,-3.0133 -0.3252,-3.0818 -0.0174,-0.0686 -0.0172,-0.1027 -0.0856,-0.7533 -0.0684,-0.6507 -0.154,-3.4584 -0.274,-5.068 -0.12,-1.6095 -0.3423,-2.1059 -0.4622,-2.26 -0.1201,-0.1541 -0.9075,-0.9586 -2.0202,-1.6607 -1.1128,-0.7021 -2.277,-1.6437 -3.1848,-2.1573 0,0 -0.7192,-0.4622 -1.4551,-0.9416 -0.7363,-0.4796 -1.284,-0.6336 -1.6436,-0.7877 -0.3596,-0.1541 -1.1986,0.0686 -1.6437,0.3595 -0.4452,0.2909 -0.6849,0.9418 -0.8217,1.9518 -0.1371,1.0101 -0.2228,1.9861 0,3.6298 0.2224,1.6437 0.0339,2.277 0,3.2702 -0.0344,0.9928 0.0854,2.1744 0.0514,3.1332 -0.0343,0.9586 0.0514,3.1332 -0.0688,4.4173 -0.12,1.2842 0.1028,3.9891 0.1713,5.085 0.0685,1.0957 0.0342,3.1846 0.1369,4.1775 0.1028,0.993 0.0514,4.1434 0.1028,5.7357 0.0514,1.5923 0.1368,3.8179 0.1368,4.691 0,0.8732 0.12,1.8662 0.0001,2.4141 -0.1198,0.5479 -0.0684,1.13 -0.0684,1.7121 0,0.582 0.3596,1.2327 0.6164,1.5581 0.2568,0.3254 0.8218,0.5478 1.6777,1.0957 0.856,0.548 2.7052,1.5922 3.4244,2.123 0.7189,0.5306 2.996,1.5238 4.0575,2.1401 1.0616,0.6163 1.0274,0.4452 1.3184,0.2055 0.2912,-0.2398 0.8902,-0.8903 1.1471,-1.4382 0.257,-0.548 -0.1711,-2.1744 -0.0685,-2.688z"/>
   <path class="fil1" d="M72.2088 30.282c-0.4452,0.8903 -0.8564,2.0714 -0.9418,3.2187 -0.0854,1.1472 -0.2054,3.9723 -0.1027,5.7699 0.1027,1.7978 0.4451,4.3832 0.4281,5.941 -0.0171,1.5581 -0.12,4.0404 -0.1025,5.4446 0.0168,1.404 -0.0858,4.3145 -0.1028,5.7869 -0.0172,1.4725 0.2224,3.9037 0.1711,4.9138 -0.0513,1.0101 -0.3938,2.0374 -0.3595,2.3455 0.0343,0.3081 -0.0173,0.4796 0.1198,0.9589 0.137,0.4793 0.3253,1.2496 0.3937,1.4037 0.0685,0.1541 0.12,0.5479 0.12,0.5479 0,0 -4.2291,2.3625 -5.0852,2.9448 -0.8558,0.5823 -3.544,2.1231 -4.2632,2.5512 -0.7191,0.4279 -1.1471,0.5479 -1.1471,0.5479l0.8218 -1.8834c0,0 -0.171,-2.3116 -0.154,-3.4243 0.017,-1.1127 0.1024,-3.5781 0.017,-4.8452 -0.0854,-1.267 -0.2054,-2.842 -0.2738,-4.4002 -0.0685,-1.5579 -0.3252,-4.2632 -0.2912,-5.3075 0.034,-1.0442 0.0514,-3.9207 0,-5.4275 -0.0514,-1.5066 -0.2395,-3.2186 -0.154,-4.3315 0.0854,-1.113 -0.0173,-2.1916 0,-3.2016 0.0171,-1.0103 0.0341,-2.0718 -0.0685,-2.6196 -0.1027,-0.548 -0.3425,-1.1986 -0.3425,-1.1986 0,0 -1.1641,0.3941 -1.6777,0.7192 -0.5137,0.3253 -1.1644,0.6504 -1.2328,0.7363 -0.0686,0.0854 -0.1026,0.2568 -0.154,1.3011 -0.0515,1.0443 -0.2398,3.4242 -0.2569,4.2803 -0.0173,0.8561 0,1.7123 0.4622,1.8664 0.4622,0.154 0.9417,0.1711 1.0957,0.4279 0.1541,0.2569 0.445,0.2398 -0.3938,0.5993 -0.8389,0.3596 -2.6366,1.0101 -3.8863,1.5751 -1.2501,0.565 -3.0992,1.1641 -3.7156,1.4895 -0.6163,0.3254 -2.2426,1.0616 -3.0988,1.404 -0.8561,0.3423 -1.4724,0.5821 -1.5923,-0.4109 -0.1198,-0.9932 -0.0173,-1.3186 0.2738,-1.815 0.2913,-0.4964 0.4624,-0.6163 0.531,-1.4038 0.0685,-0.7876 0.1368,-3.2016 0.1708,-4.948 0.0345,-1.7464 -0.154,-6.4205 -0.2054,-7.8416 -0.0514,-1.4212 -0.2396,-6.4204 -0.3764,-8.3209 -0.1371,-1.9004 -0.2398,-5.9925 -0.3082,-7.482 -0.0686,-1.4896 -0.0856,-4.8966 -0.1026,-6.2321 -0.0173,-1.3355 -0.1027,-2.5682 -0.2054,-3.0476 -0.1027,-0.4796 -0.2057,-0.8732 -0.1373,-1.1813 0.0685,-0.3082 0.154,-0.9759 0.0685,-1.3354 -0.0854,-0.3596 -0.548,-0.9419 -0.839,-1.5582 -0.291,-0.6163 -0.2737,-0.9586 0.0345,-1.1983 0.3081,-0.2398 0.6676,-0.1198 1.1126,0.2054 0.4451,0.3252 0.9759,0.7361 0.9759,0.7361 0.4453,0.2055 1.1813,0.7022 1.6437,1.2671 0.4622,0.565 0.7878,0.8389 1.404,1.13 0.6163,0.2911 1.1982,0.7191 1.4209,1.0787 0.2227,0.3595 0.2056,0.5306 0.8732,0.8218 0.6678,0.2911 1.2668,0.5479 1.7292,0.9588 0.4623,0.411 1.0787,0.9586 1.5069,1.2498 0.4282,0.2911 1.2669,1.1298 1.969,1.6093 0.7018,0.4795 1.2667,0.8902 0.6846,1.2841 -0.5819,0.3938 -0.9758,0.7191 -0.9929,1.6095 -0.0171,0.8902 -0.154,2.6193 -0.1884,3.5782 -0.0342,0.9589 -0.0172,2.4141 0.0684,3.0477 0.0857,0.6335 0.2742,1.7121 0.2397,2.26 -0.0341,0.5478 -0.3082,1.2155 -0.2911,2.123 0.0173,0.9074 0.0343,3.6638 0.0857,4.8281 0.0514,1.1643 0.137,2.4139 0.137,2.8934 0,0.4796 -0.1543,0.9589 0.7532,0.5994 0.9074,-0.3596 2.3628,-0.9759 3.4927,-1.3526 1.13,-0.3768 2.4827,-1.0273 3.784,-1.5753 1.301,-0.548 2.4484,-1.1129 3.2872,-1.5238 0.8389,-0.411 2.0374,-0.7877 2.568,-0.8732 0.5308,-0.0854 1.0444,-0.2055 0.5994,0.6849z"/>
   <path class="fil1" d="M53.7006 85.412c-0.2394,2.1746 -0.6335,5.1193 -1.1985,7.0198 -0.565,1.9004 -0.993,2.4997 -1.541,3.2872 -0.5477,0.7875 -0.4791,0.8902 -1.1297,2.0031 -0.6508,1.113 -2.6368,3.6469 -3.4415,4.5714 -0.8047,0.9246 -1.5237,1.6607 -2.7392,2.5169 -1.216,0.8562 -3.9382,2.3798 -5.8386,3.3901 -1.9006,1.0102 -4.0234,2.0372 -5.5987,2.5851 -1.575,0.548 -3.3215,0.6849 -4.1603,0.8391 -0.8388,0.1541 -1.8149,0.1027 -3.9892,-0.137 -2.1744,-0.2398 -6.0096,-1.284 -8.1669,-2.4311 -2.1572,-1.1473 -4.2288,-2.9107 -5.7356,-4.1434 -1.5067,-1.2327 -3.1333,-2.551 -4.4516,-4.8966 -1.3182,-2.3456 -2.0713,-3.6128 -2.6193,-5.7185 -0.5481,-2.106 -1.3698,-4.948 -1.5067,-6.1808 -0.1371,-1.2327 -0.4281,-3.5099 -0.2569,-4.8111 0.171,-1.3011 0.4795,-3.3386 0.565,-4.109 0.0855,-0.7705 0.137,-0.9418 0.1713,-1.0273 0.034,-0.0855 0.3594,-0.3423 0.308,0.5309 -0.0513,0.8732 -0.1198,2.1741 -0.1711,3.6809 -0.0514,1.5069 0,2.0032 0.154,2.9277 0.1542,0.9246 0.2569,3.116 0.9247,5.2048 0.6676,2.0888 1.4381,3.8009 2.6708,5.5816 1.2328,1.7806 3.6641,4.537 5.8728,6.1123 2.2084,1.5752 5.3587,3.7496 8.218,4.075 2.8593,0.3251 4.8967,0.3254 6.523,-0.3082 1.6268,-0.6336 1.815,-0.8564 3.4073,-1.952 1.5924,-1.0957 2.671,-1.8151 4.1947,-3.3901 1.524,-1.575 3.3387,-3.6123 4.5546,-5.7355 1.2153,-2.1231 1.9001,-3.6984 2.3796,-5.068 0.4796,-1.3695 0.839,-2.8593 0.7023,-4.7084 -0.1373,-1.8491 -0.4625,-3.7322 -0.6851,-5.4102 -0.2224,-1.6779 -0.6846,-4.6398 -1.2668,-6.6259 -0.5822,-1.9861 -1.2157,-4.6057 -1.7976,-6.2664 -0.5824,-1.6606 -1.0617,-2.6708 -1.3355,-3.5096 -0.2742,-0.8391 -1.3184,-2.4314 -1.5752,-2.7909 -0.2569,-0.3595 -0.4966,-0.5136 -0.5822,-0.7191 -0.0856,-0.2054 -0.1371,-0.2395 -0.8731,0 -0.7363,0.2398 -3.0477,1.4895 -4.366,1.9348 -1.3185,0.4452 -3.8181,1.2498 -4.5886,1.7807 -0.7704,0.5306 -1.8318,1.2495 -2.1913,1.4722 -0.3595,0.2227 -0.7536,0.4281 -0.9932,0.5479 -0.2396,0.1198 -0.8905,0.2567 -0.1542,-0.8047 0.7364,-1.0614 0.8218,-1.5068 0.8218,-2.3113 0,-0.8046 -0.0512,-2.4141 0.0174,-3.8523 0.0681,-1.4382 -0.0344,-3.7154 0,-4.9136 0.0339,-1.1986 0.154,-2.4313 -0.0174,-3.4243 -0.1713,-0.993 -0.2397,-1.5239 -0.6336,-1.7121 -0.3936,-0.1885 -0.5136,-0.1541 -1.3867,0.2568 -0.8732,0.411 -2.859,1.3353 -4.0576,1.7805 -1.1984,0.4452 -3.0134,1.13 -3.373,1.2669 -0.3594,0.1371 -0.5821,0.2569 -0.8217,0.3082 -0.2397,0.0514 -0.6848,-0.017 -0.8903,0.2912 -0.2054,0.3081 -0.9418,1.164 -1.3698,0.565 -0.4278,-0.5993 -0.2567,-0.8904 -0.1196,-1.2327 0.1369,-0.3426 0.2908,-0.5137 0.4278,-1.0617 0.1372,-0.548 0.1885,-1.0616 0.1712,-2.4825 -0.017,-1.4211 -0.1711,-4.3317 -0.1883,-5.9754 -0.017,-1.6437 -0.1884,-2.9107 -0.2055,-4.4686 -0.017,-1.5579 -0.2226,-3.4584 -0.1712,-3.8351 0.0515,-0.3767 -0.1539,-0.7533 -0.4964,-1.0786 -0.3425,-0.3254 -0.9074,-0.7877 -1.0273,-1.2841 -0.1199,-0.4966 -0.137,-0.8048 0.5136,-0.9246 0.6505,-0.12 1.1984,0.1025 1.7805,0.034 0.5823,-0.0684 1.2498,-0.4109 2.2942,-0.9245 1.0444,-0.5136 2.9962,-1.4723 3.9549,-2.0203 0.9588,-0.548 1.4895,-0.9075 1.8319,-1.1129 0.3426,-0.2055 0.7363,-0.3425 0.6849,-1.0272 -0.0513,-0.6848 -0.3424,-1.5582 -0.3595,-2.9278 -0.0173,-1.3695 -0.1372,-2.6368 -0.0173,-4.3659 0.12,-1.7291 0.12,-2.7222 0.7878,-4.383 0.6676,-1.6607 1.0442,-3.1501 2.3968,-4.5713 1.3527,-1.4212 1.541,-1.6435 1.541,-1.6435 0,0 0.394,-0.2741 0.2398,0.1541 -0.154,0.428 -0.805,2.6366 -0.7362,5.3589 0.0686,2.7223 0.274,3.9035 0.7362,5.3416 0.4623,1.4382 1.4723,3.4759 2.3968,4.914 0.9247,1.4382 2.106,2.7736 3.2873,3.8009 1.1813,1.0272 2.8423,2.1229 4.349,2.7906 1.5065,0.6678 2.2257,1.1471 4.5543,1.3526 2.3285,0.2054 4.2633,0.1541 5.085,0.0686 0.8218,-0.0856 1.0099,-0.1541 1.1471,-0.0856 0.137,0.0684 0.6335,0.3425 -0.017,0.5479 -0.6508,0.2055 -1.832,0.5135 -2.9792,0.7532 -1.1472,0.2397 -4.3832,0.685 -6.0267,0.5993 -1.6438,-0.0856 -4.7083,-0.1884 -6.5403,-0.5993 -1.832,-0.4109 -3.3901,-0.8218 -4.52,-1.5237 -1.1301,-0.702 -1.5409,-1.2499 -1.7979,-1.3697 -0.2568,-0.1198 -0.7533,-0.4624 -0.7533,0.5306 0,0.9932 0.274,3.8353 0.2396,5.787 -0.034,1.9519 -0.1369,3.9548 -0.1196,5.7698 0.0167,1.815 0.2394,3.4755 0.1196,4.109 -0.1196,0.6337 -0.5136,1.5237 0.6849,1.2842 1.1985,-0.2396 3.0818,-1.2328 4.6914,-1.7464 1.6091,-0.5136 2.8931,-1.13 4.5027,-1.7978 1.6095,-0.6677 4.0918,-1.6609 4.0918,-1.6609 0,0 0.2399,0.548 -0.2396,1.0273 -0.4796,0.4796 -1.01,0.805 -1.13,1.4727 -0.12,0.6677 -0.4963,4.7768 -0.4963,6.5572 0,1.7804 0.1024,4.2975 0.0854,4.7941 -0.017,0.4964 -0.4623,1.7118 0.719,1.2668 1.1814,-0.445 2.1747,-0.7191 2.8424,-1.13 0.6676,-0.411 2.3967,-1.1984 3.6638,-1.6778 1.267,-0.4796 3.0817,-1.1473 3.5783,-1.404 0.4964,-0.2569 1.1128,-0.5823 1.4895,-0.1027 0.3767,0.4795 1.9347,3.0646 2.5169,4.7254 0.5819,1.661 2.0887,5.6329 2.6536,8.0813 0.5651,2.4482 1.1984,4.4684 1.421,6.4203 0.2227,1.9517 0.5994,4.5545 0.6164,6.5917 0.0172,2.0373 0.1026,4.5368 -0.137,6.7113z"/>
  </g>
 </g>
</svg>
